<mxfile host="65bd71144e" modified="2020-12-03T04:07:11.072Z" agent="5.0 (Windows NT 10.0; Win64; x64) AppleWebKit/537.36 (KHTML, like Gecko) Code/1.51.1 Chrome/83.0.4103.122 Electron/9.3.3 Safari/537.36" etag="dz9T7UaxRwrkK0-sfysK" version="13.6.5" pages="2">
    <diagram id="UuIjOABFm44T4R4anlI3" name="Page-1">
        <mxGraphModel dx="897" dy="629" grid="1" gridSize="10" guides="1" tooltips="1" connect="1" arrows="1" fold="1" page="1" pageScale="1" pageWidth="827" pageHeight="1169" background="#F4F1DE" math="0" shadow="0">
            <root>
                <mxCell id="0"/>
                <mxCell id="1" parent="0"/>
                <mxCell id="YyvkF1vjtjrmEI8QZi8X-1" value="" style="rounded=0;whiteSpace=wrap;html=1;fillColor=#F2CC8F;strokeColor=#E07A5F;fontColor=#393C56;" parent="1" vertex="1">
                    <mxGeometry x="180" y="50" width="500" height="170" as="geometry"/>
                </mxCell>
                <mxCell id="YyvkF1vjtjrmEI8QZi8X-3" value="" style="endArrow=none;html=1;labelBackgroundColor=#F4F1DE;strokeColor=#E07A5F;fontColor=#393C56;" parent="1" edge="1">
                    <mxGeometry width="50" height="50" relative="1" as="geometry">
                        <mxPoint x="350" y="100" as="sourcePoint"/>
                        <mxPoint x="350" y="50" as="targetPoint"/>
                        <Array as="points">
                            <mxPoint x="350" y="135"/>
                        </Array>
                    </mxGeometry>
                </mxCell>
                <mxCell id="YyvkF1vjtjrmEI8QZi8X-4" value="" style="endArrow=none;html=1;labelBackgroundColor=#F4F1DE;strokeColor=#E07A5F;fontColor=#393C56;" parent="1" edge="1">
                    <mxGeometry width="50" height="50" relative="1" as="geometry">
                        <mxPoint x="450" y="190" as="sourcePoint"/>
                        <mxPoint x="450" y="140" as="targetPoint"/>
                        <Array as="points">
                            <mxPoint x="450" y="225"/>
                        </Array>
                    </mxGeometry>
                </mxCell>
                <mxCell id="YyvkF1vjtjrmEI8QZi8X-5" value="" style="endArrow=none;html=1;labelBackgroundColor=#F4F1DE;strokeColor=#E07A5F;fontColor=#393C56;" parent="1" edge="1">
                    <mxGeometry width="50" height="50" relative="1" as="geometry">
                        <mxPoint x="550" y="100" as="sourcePoint"/>
                        <mxPoint x="550" y="50" as="targetPoint"/>
                        <Array as="points">
                            <mxPoint x="550" y="135"/>
                        </Array>
                    </mxGeometry>
                </mxCell>
                <mxCell id="YyvkF1vjtjrmEI8QZi8X-6" value="" style="triangle;whiteSpace=wrap;html=1;fillColor=#000000;strokeColor=#E07A5F;fontColor=#393C56;" parent="1" vertex="1">
                    <mxGeometry x="210" y="127.5" width="20" height="15" as="geometry"/>
                </mxCell>
                <mxCell id="YyvkF1vjtjrmEI8QZi8X-8" value="" style="curved=1;endArrow=classic;html=1;entryX=1;entryY=0.5;entryDx=0;entryDy=0;labelBackgroundColor=#F4F1DE;strokeColor=#000000;fontColor=#393C56;fillColor=#000000;" parent="1" target="YyvkF1vjtjrmEI8QZi8X-1" edge="1">
                    <mxGeometry width="50" height="50" relative="1" as="geometry">
                        <mxPoint x="230" y="135.5" as="sourcePoint"/>
                        <mxPoint x="450" y="160" as="targetPoint"/>
                        <Array as="points">
                            <mxPoint x="450" y="210"/>
                            <mxPoint x="390" y="110"/>
                            <mxPoint x="540" y="150"/>
                        </Array>
                    </mxGeometry>
                </mxCell>
                <mxCell id="YyvkF1vjtjrmEI8QZi8X-9" value="reinforcement learning&lt;br&gt;(python)" style="text;html=1;strokeColor=none;fillColor=none;align=center;verticalAlign=middle;whiteSpace=wrap;rounded=0;fontSize=23;fontColor=#393C56;" parent="1" vertex="1">
                    <mxGeometry x="70" y="280" width="260" height="20" as="geometry"/>
                </mxCell>
                <mxCell id="YyvkF1vjtjrmEI8QZi8X-10" value="FDTD&lt;br&gt;(C++, CUDA)" style="text;html=1;strokeColor=none;fillColor=none;align=center;verticalAlign=middle;whiteSpace=wrap;rounded=0;fontSize=23;fontColor=#393C56;" parent="1" vertex="1">
                    <mxGeometry x="510" y="285" width="260" height="20" as="geometry"/>
                </mxCell>
                <mxCell id="YyvkF1vjtjrmEI8QZi8X-17" value="" style="edgeStyle=orthogonalEdgeStyle;rounded=0;orthogonalLoop=1;jettySize=auto;html=1;fontSize=23;labelBackgroundColor=#F4F1DE;strokeColor=#E07A5F;fontColor=#393C56;" parent="1" source="YyvkF1vjtjrmEI8QZi8X-11" target="YyvkF1vjtjrmEI8QZi8X-12" edge="1">
                    <mxGeometry relative="1" as="geometry"/>
                </mxCell>
                <mxCell id="YyvkF1vjtjrmEI8QZi8X-11" value="action&lt;br&gt;- move direction&lt;br&gt;- pulse direction" style="rounded=1;whiteSpace=wrap;html=1;fontSize=23;fillColor=#F2CC8F;strokeColor=#E07A5F;fontColor=#393C56;" parent="1" vertex="1">
                    <mxGeometry x="80" y="340" width="240" height="100" as="geometry"/>
                </mxCell>
                <mxCell id="YyvkF1vjtjrmEI8QZi8X-19" value="" style="edgeStyle=orthogonalEdgeStyle;rounded=0;orthogonalLoop=1;jettySize=auto;html=1;fontSize=23;labelBackgroundColor=#F4F1DE;strokeColor=#E07A5F;fontColor=#393C56;" parent="1" source="YyvkF1vjtjrmEI8QZi8X-12" target="YyvkF1vjtjrmEI8QZi8X-18" edge="1">
                    <mxGeometry relative="1" as="geometry"/>
                </mxCell>
                <mxCell id="YyvkF1vjtjrmEI8QZi8X-12" value="bump into wall" style="rhombus;whiteSpace=wrap;html=1;fontSize=23;fillColor=#F2CC8F;strokeColor=#E07A5F;fontColor=#393C56;" parent="1" vertex="1">
                    <mxGeometry x="90" y="470" width="220" height="70" as="geometry"/>
                </mxCell>
                <mxCell id="YyvkF1vjtjrmEI8QZi8X-13" value="" style="endArrow=classic;html=1;fontSize=23;exitX=1;exitY=0.5;exitDx=0;exitDy=0;labelBackgroundColor=#F4F1DE;strokeColor=#E07A5F;fontColor=#393C56;" parent="1" source="YyvkF1vjtjrmEI8QZi8X-12" edge="1">
                    <mxGeometry width="50" height="50" relative="1" as="geometry">
                        <mxPoint x="390" y="540" as="sourcePoint"/>
                        <mxPoint x="360" y="505" as="targetPoint"/>
                    </mxGeometry>
                </mxCell>
                <mxCell id="YyvkF1vjtjrmEI8QZi8X-14" value="Yes" style="text;html=1;strokeColor=none;fillColor=none;align=center;verticalAlign=middle;whiteSpace=wrap;rounded=0;fontSize=23;fontColor=#393C56;" parent="1" vertex="1">
                    <mxGeometry x="310" y="480" width="40" height="20" as="geometry"/>
                </mxCell>
                <mxCell id="YyvkF1vjtjrmEI8QZi8X-31" value="" style="edgeStyle=orthogonalEdgeStyle;rounded=0;orthogonalLoop=1;jettySize=auto;html=1;fontSize=23;entryX=1;entryY=0.5;entryDx=0;entryDy=0;labelBackgroundColor=#F4F1DE;strokeColor=#E07A5F;fontColor=#393C56;" parent="1" source="YyvkF1vjtjrmEI8QZi8X-15" target="YyvkF1vjtjrmEI8QZi8X-11" edge="1">
                    <mxGeometry relative="1" as="geometry">
                        <mxPoint x="420" y="415" as="targetPoint"/>
                        <Array as="points">
                            <mxPoint x="420" y="390"/>
                        </Array>
                    </mxGeometry>
                </mxCell>
                <mxCell id="YyvkF1vjtjrmEI8QZi8X-15" value="Episode fin" style="text;html=1;strokeColor=none;fillColor=none;align=center;verticalAlign=middle;whiteSpace=wrap;rounded=0;fontSize=23;fontColor=#393C56;" parent="1" vertex="1">
                    <mxGeometry x="360" y="495" width="120" height="20" as="geometry"/>
                </mxCell>
                <mxCell id="YyvkF1vjtjrmEI8QZi8X-25" value="" style="edgeStyle=orthogonalEdgeStyle;rounded=0;orthogonalLoop=1;jettySize=auto;html=1;fontSize=23;labelBackgroundColor=#F4F1DE;strokeColor=#E07A5F;fontColor=#393C56;" parent="1" source="YyvkF1vjtjrmEI8QZi8X-18" target="YyvkF1vjtjrmEI8QZi8X-21" edge="1">
                    <mxGeometry relative="1" as="geometry">
                        <mxPoint x="390" y="605" as="targetPoint"/>
                    </mxGeometry>
                </mxCell>
                <mxCell id="YyvkF1vjtjrmEI8QZi8X-36" value="" style="edgeStyle=orthogonalEdgeStyle;rounded=0;orthogonalLoop=1;jettySize=auto;html=1;fontSize=23;labelBackgroundColor=#F4F1DE;strokeColor=#E07A5F;fontColor=#393C56;" parent="1" source="YyvkF1vjtjrmEI8QZi8X-18" target="YyvkF1vjtjrmEI8QZi8X-35" edge="1">
                    <mxGeometry relative="1" as="geometry"/>
                </mxCell>
                <mxCell id="YyvkF1vjtjrmEI8QZi8X-18" value="echoes data" style="rhombus;whiteSpace=wrap;html=1;fontSize=23;fillColor=#F2CC8F;strokeColor=#E07A5F;fontColor=#393C56;" parent="1" vertex="1">
                    <mxGeometry x="90" y="570" width="220" height="70" as="geometry"/>
                </mxCell>
                <mxCell id="YyvkF1vjtjrmEI8QZi8X-20" value="No" style="text;html=1;strokeColor=none;fillColor=none;align=center;verticalAlign=middle;whiteSpace=wrap;rounded=0;fontSize=23;fontColor=#393C56;" parent="1" vertex="1">
                    <mxGeometry x="150" y="540" width="40" height="20" as="geometry"/>
                </mxCell>
                <mxCell id="YyvkF1vjtjrmEI8QZi8X-29" value="" style="edgeStyle=orthogonalEdgeStyle;rounded=0;orthogonalLoop=1;jettySize=auto;html=1;fontSize=23;labelBackgroundColor=#F4F1DE;strokeColor=#E07A5F;fontColor=#393C56;" parent="1" source="YyvkF1vjtjrmEI8QZi8X-21" target="YyvkF1vjtjrmEI8QZi8X-28" edge="1">
                    <mxGeometry relative="1" as="geometry"/>
                </mxCell>
                <mxCell id="YyvkF1vjtjrmEI8QZi8X-21" value="run FDTD" style="rounded=1;whiteSpace=wrap;html=1;fontSize=23;fillColor=#F2CC8F;strokeColor=#E07A5F;fontColor=#393C56;" parent="1" vertex="1">
                    <mxGeometry x="580" y="575" width="120" height="60" as="geometry"/>
                </mxCell>
                <mxCell id="YyvkF1vjtjrmEI8QZi8X-26" value="No" style="text;html=1;strokeColor=none;fillColor=none;align=center;verticalAlign=middle;whiteSpace=wrap;rounded=0;fontSize=23;fontColor=#393C56;" parent="1" vertex="1">
                    <mxGeometry x="414" y="575" width="40" height="20" as="geometry"/>
                </mxCell>
                <mxCell id="YyvkF1vjtjrmEI8QZi8X-27" value="agent position&lt;br&gt;pulse direction" style="text;html=1;strokeColor=none;fillColor=none;align=center;verticalAlign=middle;whiteSpace=wrap;rounded=0;fontSize=23;fontColor=#393C56;" parent="1" vertex="1">
                    <mxGeometry x="350" y="605" width="160" height="65" as="geometry"/>
                </mxCell>
                <mxCell id="YyvkF1vjtjrmEI8QZi8X-34" value="" style="edgeStyle=orthogonalEdgeStyle;rounded=0;orthogonalLoop=1;jettySize=auto;html=1;fontSize=23;labelBackgroundColor=#F4F1DE;strokeColor=#E07A5F;fontColor=#393C56;" parent="1" source="YyvkF1vjtjrmEI8QZi8X-28" target="YyvkF1vjtjrmEI8QZi8X-33" edge="1">
                    <mxGeometry relative="1" as="geometry"/>
                </mxCell>
                <mxCell id="YyvkF1vjtjrmEI8QZi8X-28" value="save echoes" style="rounded=1;whiteSpace=wrap;html=1;fontSize=23;fillColor=#F2CC8F;strokeColor=#E07A5F;fontColor=#393C56;" parent="1" vertex="1">
                    <mxGeometry x="580" y="720" width="120" height="60" as="geometry"/>
                </mxCell>
                <mxCell id="YyvkF1vjtjrmEI8QZi8X-37" value="" style="edgeStyle=orthogonalEdgeStyle;rounded=0;orthogonalLoop=1;jettySize=auto;html=1;fontSize=23;labelBackgroundColor=#F4F1DE;strokeColor=#E07A5F;fontColor=#393C56;" parent="1" source="YyvkF1vjtjrmEI8QZi8X-33" target="YyvkF1vjtjrmEI8QZi8X-35" edge="1">
                    <mxGeometry relative="1" as="geometry">
                        <Array as="points">
                            <mxPoint x="330" y="760"/>
                            <mxPoint x="330" y="760"/>
                        </Array>
                    </mxGeometry>
                </mxCell>
                <mxCell id="YyvkF1vjtjrmEI8QZi8X-33" value="echoes data base&lt;br&gt;(csv?)" style="shape=cylinder3;whiteSpace=wrap;html=1;boundedLbl=1;backgroundOutline=1;size=15;fontSize=23;fillColor=#F2CC8F;strokeColor=#E07A5F;fontColor=#393C56;" parent="1" vertex="1">
                    <mxGeometry x="370" y="690" width="120" height="120" as="geometry"/>
                </mxCell>
                <mxCell id="YyvkF1vjtjrmEI8QZi8X-52" value="" style="edgeStyle=orthogonalEdgeStyle;curved=0;rounded=1;sketch=0;orthogonalLoop=1;jettySize=auto;html=1;strokeColor=#E07A5F;fillColor=#F2CC8F;fontColor=#393C56;" parent="1" source="YyvkF1vjtjrmEI8QZi8X-35" target="YyvkF1vjtjrmEI8QZi8X-33" edge="1">
                    <mxGeometry relative="1" as="geometry"/>
                </mxCell>
                <mxCell id="YyvkF1vjtjrmEI8QZi8X-35" value="get echoes" style="rounded=1;whiteSpace=wrap;html=1;fontSize=23;fillColor=#F2CC8F;strokeColor=#E07A5F;fontColor=#393C56;" parent="1" vertex="1">
                    <mxGeometry x="125" y="725" width="150" height="50" as="geometry"/>
                </mxCell>
                <mxCell id="YyvkF1vjtjrmEI8QZi8X-39" value="Yes" style="text;html=1;strokeColor=none;fillColor=none;align=center;verticalAlign=middle;whiteSpace=wrap;rounded=0;fontSize=23;fontColor=#393C56;" parent="1" vertex="1">
                    <mxGeometry x="150" y="660" width="40" height="20" as="geometry"/>
                </mxCell>
                <mxCell id="YyvkF1vjtjrmEI8QZi8X-44" value="" style="edgeStyle=orthogonalEdgeStyle;rounded=0;orthogonalLoop=1;jettySize=auto;html=1;fontSize=23;labelBackgroundColor=#F4F1DE;strokeColor=#E07A5F;fontColor=#393C56;" parent="1" source="YyvkF1vjtjrmEI8QZi8X-40" target="YyvkF1vjtjrmEI8QZi8X-43" edge="1">
                    <mxGeometry relative="1" as="geometry"/>
                </mxCell>
                <mxCell id="YyvkF1vjtjrmEI8QZi8X-40" value="SCAT model" style="rounded=1;whiteSpace=wrap;html=1;fontSize=23;fillColor=#F2CC8F;strokeColor=#E07A5F;fontColor=#393C56;" parent="1" vertex="1">
                    <mxGeometry x="107" y="830" width="185" height="70" as="geometry"/>
                </mxCell>
                <mxCell id="YyvkF1vjtjrmEI8QZi8X-41" value="" style="edgeStyle=orthogonalEdgeStyle;rounded=0;orthogonalLoop=1;jettySize=auto;html=1;fontSize=23;entryX=0.5;entryY=0;entryDx=0;entryDy=0;labelBackgroundColor=#F4F1DE;strokeColor=#E07A5F;fontColor=#393C56;" parent="1" target="YyvkF1vjtjrmEI8QZi8X-40" edge="1">
                    <mxGeometry relative="1" as="geometry">
                        <mxPoint x="199.5" y="775" as="sourcePoint"/>
                        <mxPoint x="199.5" y="860" as="targetPoint"/>
                    </mxGeometry>
                </mxCell>
                <mxCell id="YyvkF1vjtjrmEI8QZi8X-46" value="" style="edgeStyle=orthogonalEdgeStyle;rounded=0;orthogonalLoop=1;jettySize=auto;html=1;fontSize=23;entryX=0;entryY=0.5;entryDx=0;entryDy=0;labelBackgroundColor=#F4F1DE;strokeColor=#E07A5F;fontColor=#393C56;" parent="1" source="YyvkF1vjtjrmEI8QZi8X-43" target="YyvkF1vjtjrmEI8QZi8X-11" edge="1">
                    <mxGeometry relative="1" as="geometry">
                        <mxPoint x="-1" y="1000" as="targetPoint"/>
                        <Array as="points">
                            <mxPoint x="40" y="1000"/>
                            <mxPoint x="40" y="390"/>
                        </Array>
                    </mxGeometry>
                </mxCell>
                <mxCell id="YyvkF1vjtjrmEI8QZi8X-43" value="receive&lt;br&gt;- environment&lt;br&gt;- reward" style="rounded=1;whiteSpace=wrap;html=1;fontSize=23;fillColor=#F2CC8F;strokeColor=#E07A5F;fontColor=#393C56;" parent="1" vertex="1">
                    <mxGeometry x="79" y="950" width="240" height="100" as="geometry"/>
                </mxCell>
                <mxCell id="YyvkF1vjtjrmEI8QZi8X-47" value="check" style="text;html=1;strokeColor=none;fillColor=none;align=center;verticalAlign=middle;whiteSpace=wrap;rounded=0;fontSize=23;fontColor=#393C56;" parent="1" vertex="1">
                    <mxGeometry x="290" y="660" width="40" height="20" as="geometry"/>
                </mxCell>
                <mxCell id="YyvkF1vjtjrmEI8QZi8X-53" value="" style="endArrow=classic;startArrow=classic;html=1;strokeColor=#E07A5F;fillColor=#F2CC8F;fontColor=#393C56;entryX=1;entryY=1;entryDx=0;entryDy=0;exitX=0.5;exitY=0;exitDx=0;exitDy=0;exitPerimeter=0;" parent="1" source="YyvkF1vjtjrmEI8QZi8X-33" target="YyvkF1vjtjrmEI8QZi8X-18" edge="1">
                    <mxGeometry width="50" height="50" relative="1" as="geometry">
                        <mxPoint x="510" y="640" as="sourcePoint"/>
                        <mxPoint x="560" y="590" as="targetPoint"/>
                        <Array as="points">
                            <mxPoint x="330" y="660"/>
                        </Array>
                    </mxGeometry>
                </mxCell>
            </root>
        </mxGraphModel>
    </diagram>
    <diagram id="HbMq4_zCSAA5sM_zz9Ww" name="Page-2">
        <mxGraphModel dx="897" dy="629" grid="1" gridSize="10" guides="1" tooltips="1" connect="1" arrows="1" fold="1" page="1" pageScale="1" pageWidth="827" pageHeight="1169" math="0" shadow="0">
            <root>
                <mxCell id="vNqCKn2n8R8jKLDT5ZiK-0"/>
                <mxCell id="vNqCKn2n8R8jKLDT5ZiK-1" parent="vNqCKn2n8R8jKLDT5ZiK-0"/>
                <mxCell id="z1mjFnj4vgPPMLjmGqAZ-0" value="Echo database&lt;br&gt;&lt;br&gt;data name : x_y.bin&lt;br&gt;ex. 200_200.bin" style="shape=cylinder2;whiteSpace=wrap;html=1;boundedLbl=1;backgroundOutline=1;size=15;" parent="vNqCKn2n8R8jKLDT5ZiK-1" vertex="1">
                    <mxGeometry x="365" y="690" width="190" height="155" as="geometry"/>
                </mxCell>
                <mxCell id="z1mjFnj4vgPPMLjmGqAZ-6" value="" style="edgeStyle=orthogonalEdgeStyle;rounded=0;orthogonalLoop=1;jettySize=auto;html=1;" parent="vNqCKn2n8R8jKLDT5ZiK-1" source="z1mjFnj4vgPPMLjmGqAZ-1" target="z1mjFnj4vgPPMLjmGqAZ-2" edge="1">
                    <mxGeometry relative="1" as="geometry"/>
                </mxCell>
                <mxCell id="z1mjFnj4vgPPMLjmGqAZ-1" value="ppo_pfrl.py&lt;br&gt;&lt;br&gt;main script&lt;br&gt;reinforcement learning" style="rounded=0;whiteSpace=wrap;html=1;" parent="vNqCKn2n8R8jKLDT5ZiK-1" vertex="1">
                    <mxGeometry x="160" y="80" width="160" height="90" as="geometry"/>
                </mxCell>
                <mxCell id="z1mjFnj4vgPPMLjmGqAZ-7" value="" style="edgeStyle=orthogonalEdgeStyle;rounded=0;orthogonalLoop=1;jettySize=auto;html=1;" parent="vNqCKn2n8R8jKLDT5ZiK-1" source="z1mjFnj4vgPPMLjmGqAZ-2" target="z1mjFnj4vgPPMLjmGqAZ-3" edge="1">
                    <mxGeometry relative="1" as="geometry"/>
                </mxCell>
                <mxCell id="z1mjFnj4vgPPMLjmGqAZ-2" value="bat_flying_env.py&lt;br&gt;&lt;br&gt;environment for bat agent" style="rounded=0;whiteSpace=wrap;html=1;" parent="vNqCKn2n8R8jKLDT5ZiK-1" vertex="1">
                    <mxGeometry x="160" y="230" width="160" height="90" as="geometry"/>
                </mxCell>
                <mxCell id="z1mjFnj4vgPPMLjmGqAZ-12" value="" style="edgeStyle=orthogonalEdgeStyle;rounded=0;orthogonalLoop=1;jettySize=auto;html=1;" parent="vNqCKn2n8R8jKLDT5ZiK-1" source="z1mjFnj4vgPPMLjmGqAZ-3" target="z1mjFnj4vgPPMLjmGqAZ-9" edge="1">
                    <mxGeometry relative="1" as="geometry"/>
                </mxCell>
                <mxCell id="z1mjFnj4vgPPMLjmGqAZ-3" value="fdtd_bat.py&lt;br&gt;&lt;br&gt;bat agent parameter" style="rounded=0;whiteSpace=wrap;html=1;" parent="vNqCKn2n8R8jKLDT5ZiK-1" vertex="1">
                    <mxGeometry x="380" y="230" width="160" height="90" as="geometry"/>
                </mxCell>
                <mxCell id="z1mjFnj4vgPPMLjmGqAZ-4" value="scat.py&lt;br&gt;&lt;br&gt;SCAT model" style="rounded=0;whiteSpace=wrap;html=1;fillColor=#60a917;strokeColor=#2D7600;fontColor=#ffffff;" parent="vNqCKn2n8R8jKLDT5ZiK-1" vertex="1">
                    <mxGeometry x="620" y="230" width="170" height="90" as="geometry"/>
                </mxCell>
                <mxCell id="z1mjFnj4vgPPMLjmGqAZ-14" value="" style="edgeStyle=orthogonalEdgeStyle;rounded=0;orthogonalLoop=1;jettySize=auto;html=1;" parent="vNqCKn2n8R8jKLDT5ZiK-1" source="z1mjFnj4vgPPMLjmGqAZ-9" target="z1mjFnj4vgPPMLjmGqAZ-11" edge="1">
                    <mxGeometry relative="1" as="geometry"/>
                </mxCell>
                <mxCell id="z1mjFnj4vgPPMLjmGqAZ-9" value="echo.py&lt;br&gt;&lt;br&gt;get echoes" style="rounded=0;whiteSpace=wrap;html=1;fillColor=#60a917;strokeColor=#2D7600;fontColor=#ffffff;" parent="vNqCKn2n8R8jKLDT5ZiK-1" vertex="1">
                    <mxGeometry x="380" y="400" width="160" height="90" as="geometry"/>
                </mxCell>
                <mxCell id="z1mjFnj4vgPPMLjmGqAZ-10" value="calc_directivity.py&lt;br&gt;&lt;br&gt;calculation echoes" style="rounded=0;whiteSpace=wrap;html=1;fillColor=#60a917;strokeColor=#2D7600;fontColor=#ffffff;" parent="vNqCKn2n8R8jKLDT5ZiK-1" vertex="1">
                    <mxGeometry x="640" y="400" width="160" height="90" as="geometry"/>
                </mxCell>
                <mxCell id="z1mjFnj4vgPPMLjmGqAZ-15" value="" style="edgeStyle=orthogonalEdgeStyle;rounded=0;orthogonalLoop=1;jettySize=auto;html=1;" parent="vNqCKn2n8R8jKLDT5ZiK-1" source="z1mjFnj4vgPPMLjmGqAZ-11" target="z1mjFnj4vgPPMLjmGqAZ-0" edge="1">
                    <mxGeometry relative="1" as="geometry"/>
                </mxCell>
                <mxCell id="z1mjFnj4vgPPMLjmGqAZ-11" value="read_echo_data.py&lt;br&gt;&lt;br&gt;get echo data from datadase" style="rounded=0;whiteSpace=wrap;html=1;fillColor=#60a917;strokeColor=#2D7600;fontColor=#ffffff;" parent="vNqCKn2n8R8jKLDT5ZiK-1" vertex="1">
                    <mxGeometry x="380" y="540" width="160" height="90" as="geometry"/>
                </mxCell>
                <mxCell id="z1mjFnj4vgPPMLjmGqAZ-16" value="" style="endArrow=classic;startArrow=classic;html=1;exitX=1;exitY=0.5;exitDx=0;exitDy=0;entryX=0;entryY=0.5;entryDx=0;entryDy=0;" parent="vNqCKn2n8R8jKLDT5ZiK-1" source="z1mjFnj4vgPPMLjmGqAZ-3" target="z1mjFnj4vgPPMLjmGqAZ-4" edge="1">
                    <mxGeometry width="50" height="50" relative="1" as="geometry">
                        <mxPoint x="910" y="590" as="sourcePoint"/>
                        <mxPoint x="960" y="540" as="targetPoint"/>
                    </mxGeometry>
                </mxCell>
                <mxCell id="z1mjFnj4vgPPMLjmGqAZ-17" value="" style="endArrow=classic;startArrow=classic;html=1;exitX=1;exitY=0.5;exitDx=0;exitDy=0;entryX=0;entryY=0.5;entryDx=0;entryDy=0;" parent="vNqCKn2n8R8jKLDT5ZiK-1" source="z1mjFnj4vgPPMLjmGqAZ-9" target="z1mjFnj4vgPPMLjmGqAZ-10" edge="1">
                    <mxGeometry width="50" height="50" relative="1" as="geometry">
                        <mxPoint x="550" y="284.9999999999998" as="sourcePoint"/>
                        <mxPoint x="630" y="284.9999999999998" as="targetPoint"/>
                    </mxGeometry>
                </mxCell>
            </root>
        </mxGraphModel>
    </diagram>
</mxfile>